<?xml version="1.0" standalone="no"?>
<!DOCTYPE svg PUBLIC "-//W3C//DTD SVG 20010904//EN"
 "http://www.w3.org/TR/2001/REC-SVG-20010904/DTD/svg10.dtd">
<svg version="1.0" xmlns="http://www.w3.org/2000/svg"
 width="213.600000pt" height="213.600000pt" viewBox="0 0 213.600000 213.600000"
 preserveAspectRatio="xMidYMid meet">
<metadata>
Created by potrace 1.13, written by Peter Selinger 2001-2015
</metadata>
<g transform="translate(0.000000,213.600000) scale(0.080000,-0.080000)"
fill="#000000" stroke="none">
<path d="M0 1335 l0 -1335 361 0 360 0 -6 47 c-11 82 -14 93 -34 93 -10 0 -26
10 -37 21 -19 21 -19 22 2 15 15 -4 24 -2 28 9 9 25 35 18 30 -7 -3 -18 -1
-17 9 6 12 25 15 26 21 10 8 -18 8 -18 16 3 12 29 2 60 -21 66 -15 4 -17 10
-10 29 10 27 50 34 52 9 1 -9 3 -25 4 -36 1 -11 2 -39 3 -63 1 -24 6 -41 10
-38 4 2 14 1 22 -5 10 -6 11 -9 3 -9 -8 0 -13 -13 -13 -30 0 -17 5 -30 13 -30
23 0 34 -42 18 -68 l-14 -23 77 3 c42 1 76 6 76 11 0 4 4 6 8 3 5 -3 7 32 4
77 -3 45 -6 105 -7 132 -2 28 -3 62 -4 78 0 15 -6 26 -13 25 -7 -2 -14 7 -16
20 -2 15 2 22 12 22 20 0 21 14 2 30 -8 6 -16 24 -18 38 -2 17 -9 27 -19 27
-25 0 -79 46 -79 66 0 11 6 19 13 19 8 0 19 11 26 24 27 49 -23 139 -72 130
-14 -2 -28 -1 -31 4 -2 4 4 9 15 9 25 2 49 21 49 38 0 6 9 20 20 30 25 23 67
13 82 -20 6 -14 15 -25 19 -25 4 0 11 -9 14 -20 3 -11 12 -20 18 -20 7 0 25
-15 41 -33 19 -21 31 -27 33 -19 4 10 8 10 20 1 12 -11 13 -9 8 12 -4 19 0 26
20 36 53 24 77 -15 50 -79 -17 -42 -20 -92 -5 -83 5 3 20 -1 33 -10 13 -8 31
-13 40 -10 19 8 29 -6 16 -25 -5 -8 -9 -10 -9 -5 0 6 -8 11 -18 11 -14 0 -17
-6 -13 -31 5 -30 5 -30 13 -5 4 14 5 -4 2 -44 -4 -47 -2 -71 6 -76 9 -5 9 -16
0 -46 -9 -30 -9 -46 1 -69 6 -16 13 -56 13 -88 1 -32 7 -61 13 -65 6 -4 13
-23 15 -42 l4 -35 12 27 c14 34 26 35 39 5 9 -18 10 -14 7 23 -5 42 -4 43 8
20 7 -14 20 -25 28 -25 8 0 17 -9 20 -20 6 -24 60 -35 60 -13 0 8 -5 19 -11
25 -8 8 -7 21 2 47 19 52 34 39 32 -28 l-2 -56 59 0 c37 0 60 4 63 13 4 10 6
10 6 0 1 -10 115 -13 536 -13 l535 0 0 1335 0 1335 -1335 0 -1335 0 0 -1335z
m1288 1241 c2 -16 -1 -33 -7 -39 -6 -6 -11 -29 -12 -51 l-1 -41 -10 44 c-5 24
-16 51 -24 58 -17 18 -18 35 -2 51 22 22 53 10 56 -22z m153 -18 c17 -17 26
-34 21 -37 -5 -3 -9 -25 -9 -49 0 -40 1 -43 23 -38 78 20 129 -100 67 -161
-15 -16 -26 -39 -27 -55 -1 -30 -16 -40 -16 -10 0 20 -75 114 -84 105 -3 -3
-3 -16 0 -28 3 -13 1 -26 -5 -29 -7 -5 -11 2 -11 15 0 12 -3 19 -7 15 -4 -4
-7 -38 -6 -74 2 -47 0 -61 -6 -47 -5 11 -10 36 -10 56 -1 37 -30 92 -31 56 0
-9 -4 -25 -9 -35 -6 -9 -13 -30 -17 -47 l-8 -30 -4 32 c-3 26 -9 34 -39 44
-32 10 -35 14 -29 41 3 17 6 42 6 57 0 33 12 52 36 55 10 2 24 14 31 27 9 18
19 23 38 21 28 -4 32 9 11 31 -37 37 -8 116 42 117 8 0 27 -14 43 -32z m-225
-346 c-3 -5 6 -15 19 -22 18 -10 25 -22 25 -45 0 -17 -5 -36 -12 -43 -9 -9 -9
-15 0 -24 17 -17 15 -44 -4 -63 -12 -11 -17 -36 -17 -88 -2 -128 5 -237 14
-237 5 0 9 5 9 10 0 6 14 17 31 24 l30 13 -25 30 c-19 23 -25 40 -24 67 2 21
8 36 16 36 20 0 14 17 -8 23 -15 4 -20 14 -20 37 0 27 3 31 23 28 17 -2 23
-11 25 -36 2 -19 8 -30 13 -26 12 7 41 -29 50 -62 4 -12 -1 -38 -12 -60 -22
-46 -23 -55 -7 -89 8 -18 19 -25 39 -25 19 0 34 -8 45 -25 16 -25 16 -34 0
-159 -5 -35 -2 -55 8 -72 14 -20 14 -26 0 -54 -12 -23 -21 -29 -35 -25 -29 10
-34 -20 -10 -60 24 -41 25 -45 11 -45 -5 0 -10 6 -10 14 0 7 -7 19 -15 26 -12
10 -15 10 -15 -3 0 -8 -12 -17 -28 -20 -29 -6 -52 -40 -52 -76 0 -18 -2 -18
-46 -2 -44 15 -46 15 -61 -4 -15 -19 -15 -18 -9 13 3 17 1 32 -4 32 -14 0 -21
-35 -16 -82 2 -24 2 -38 -1 -31 -2 7 -10 10 -16 7 -8 -3 -13 12 -14 48 -3 92
-4 95 -27 93 -11 -1 -22 -9 -24 -18 -2 -9 -8 -17 -13 -17 -14 0 -11 9 13 43
l22 30 -21 -5 c-25 -7 -21 14 9 44 10 10 16 23 13 28 -4 6 -1 10 6 10 18 0 3
139 -17 161 -9 10 -14 30 -12 46 2 22 9 29 30 31 22 3 30 -2 40 -23 10 -22 8
-30 -9 -53 -18 -24 -20 -38 -16 -95 3 -37 9 -67 12 -67 3 0 12 9 19 20 7 11
17 20 23 20 6 0 3 -7 -5 -16 -19 -18 -20 -26 -6 -40 19 -19 20 -56 3 -85 -17
-29 -14 -47 6 -34 6 3 11 15 11 26 0 10 9 28 19 38 19 19 19 20 1 39 -13 14
-17 29 -13 49 3 15 6 35 7 43 1 9 5 21 9 27 4 7 7 46 6 88 -1 45 3 81 10 88
14 14 15 81 1 72 -5 -3 -10 -2 -10 4 0 5 4 12 8 15 9 5 6 211 -4 254 -2 13 -9
20 -14 17 -6 -3 -10 5 -10 19 0 13 -4 26 -10 28 -5 2 -11 23 -13 47 -2 25 -8
46 -14 48 -6 2 -8 14 -5 26 7 30 33 68 41 63 4 -3 13 -1 21 5 19 11 23 11 16
1z m523 -49 c-15 -18 -34 -1 -25 22 5 14 9 15 21 5 12 -10 13 -16 4 -27z
m-210 -272 c0 -41 -2 -72 -5 -69 -9 10 -24 339 -16 352 7 11 18 -142 21 -283z
m-559 165 c0 -2 2 -11 5 -18 3 -8 -3 -24 -13 -36 l-19 -22 -13 29 c-6 17 -9
35 -5 40 6 10 45 16 45 7z m340 -72 c0 -16 -26 -19 -35 -4 -4 6 -4 18 -1 27 5
12 9 13 21 3 8 -7 15 -19 15 -26z m-177 -268 c3 -8 0 -17 -8 -20 -8 -3 -11
-13 -8 -24 3 -13 -2 -21 -16 -25 -18 -4 -19 -2 -10 15 6 11 8 26 5 35 -3 8 -4
19 0 24 8 14 31 11 37 -5z m733 -314 c6 -4 24 -27 40 -51 16 -24 37 -55 46
-70 23 -34 23 -70 -2 -96 -20 -21 -20 -21 0 -75 22 -60 19 -90 -11 -90 -10 0
-28 -9 -40 -21 -17 -17 -20 -31 -17 -70 1 -27 2 -49 1 -49 -2 0 -9 10 -18 23
-20 30 -28 97 -12 97 28 1 39 17 27 39 -8 15 -15 19 -23 13 -14 -11 -51 0 -62
18 -6 9 -10 9 -16 -1 -13 -22 -21 -3 -14 32 6 27 9 30 19 18 6 -8 21 -15 34
-16 17 -1 21 1 14 10 -5 7 -12 24 -16 40 -3 15 -13 27 -21 27 -25 0 -17 29 10
36 28 7 32 19 10 28 -23 8 -48 74 -40 105 13 50 57 76 91 53z m-816 -57 c0
-23 -2 -24 -20 -15 -11 6 -20 17 -20 25 0 8 9 15 20 15 15 0 20 -7 20 -25z
m-196 -121 c9 -8 16 -19 16 -24 0 -5 15 -6 33 -3 23 3 37 0 47 -11 18 -22 15
-88 -5 -98 -8 -5 -15 -16 -15 -24 0 -8 4 -12 10 -9 6 4 9 -4 8 -19 -2 -19 -5
-22 -15 -14 -10 8 -13 2 -13 -28 1 -36 2 -38 15 -20 8 11 15 15 15 9 0 -6 -7
-16 -15 -23 -9 -8 -15 -36 -17 -84 -3 -72 -3 -73 -23 -54 -16 16 -17 18 -2 13
14 -6 17 -1 17 36 0 33 -3 40 -12 31 -19 -19 -33 -14 -15 6 18 20 25 122 8
122 -14 0 -21 -27 -21 -81 0 -44 -2 -49 -22 -49 -20 0 -20 1 -5 18 10 10 17
24 17 31 0 24 -39 96 -59 111 -12 8 -24 29 -27 46 -4 24 -10 31 -21 27 -13 -5
-13 -2 -4 15 6 11 11 32 11 46 0 42 62 62 94 30z m854 -115 c20 -24 22 -32 12
-44 -7 -9 -8 -15 -2 -15 5 0 12 -11 14 -25 6 -29 -4 -32 -26 -9 -16 15 -21 39
-17 82 1 12 -3 22 -9 22 -5 0 -10 5 -10 10 0 18 14 10 38 -21z m-1098 -10 c0
-24 -23 -21 -28 4 -2 10 3 17 12 17 10 0 16 -9 16 -21z m109 -31 c13 -22 13
-30 1 -55 -8 -15 -15 -48 -16 -72 -4 -59 -23 -79 -26 -26 -1 22 -1 48 -1 58 0
15 -6 18 -28 15 -24 -4 -26 -2 -18 13 5 10 9 29 9 43 0 42 11 57 38 54 16 -2
32 -14 41 -30z m789 10 c7 -7 12 -39 12 -73 0 -35 5 -67 13 -74 10 -11 9 -12
-1 -6 -11 6 -13 -2 -11 -33 2 -23 0 -44 -4 -48 -4 -4 -7 -15 -7 -25 0 -9 -9
-27 -20 -40 l-19 -24 4 73 c3 56 1 74 -10 78 -23 9 -29 62 -10 91 14 20 19 23
26 12 5 -9 6 5 3 34 -7 47 1 58 24 35z m-351 -75 c1 -21 -3 -45 -8 -53 -5 -10
-8 3 -9 38 0 59 15 73 17 15z m111 -7 c4 -48 -14 -39 -20 9 -2 22 0 34 6 32 6
-2 12 -21 14 -41z m170 -139 c5 -7 9 -20 9 -29 0 -15 -3 -14 -22 5 -27 27 -40
63 -25 72 5 3 11 18 11 33 1 16 5 7 9 -21 5 -27 13 -54 18 -60z m147 63 c4
-19 -1 -43 -14 -72 l-20 -43 -1 77 c0 63 3 76 14 72 8 -3 18 -18 21 -34z m155
11 c0 -37 -9 -43 -38 -27 -20 11 -21 13 -6 34 22 32 44 28 44 -7z m52 -54 c0
-16 -6 -35 -11 -40 -8 -8 -11 6 -10 47 1 45 4 55 12 41 5 -10 10 -32 9 -48z
m-746 -22 c-9 -7 -13 -15 -9 -18 3 -4 12 -2 20 4 26 22 13 0 -22 -35 -19 -20
-35 -46 -35 -57 0 -18 -2 -19 -15 -5 -8 8 -15 26 -15 40 0 14 -4 28 -10 31 -5
3 -10 13 -10 21 0 8 4 13 9 10 5 -3 14 1 21 9 7 8 23 15 35 15 13 0 26 8 30
18 7 16 8 15 13 -2 2 -11 -3 -25 -12 -31z m-318 -85 c10 -17 10 -23 -2 -35
-12 -12 -14 -10 -18 20 -5 40 1 44 20 15z m641 -33 c18 -32 25 -62 29 -128 5
-101 -6 -114 -65 -79 -19 11 -39 18 -44 15 -5 -4 -6 1 -3 9 3 9 1 16 -5 16
-14 0 -4 50 19 95 17 34 18 34 35 15 10 -11 22 -20 27 -20 5 0 -4 11 -20 25
-36 30 -49 65 -21 58 21 -6 25 7 7 25 -9 9 -9 12 3 12 7 0 25 -19 38 -43z
m371 -12 c0 -16 -6 -25 -15 -25 -18 0 -20 21 -3 38 17 17 18 16 18 -13z m-293
-15 c0 -16 -4 -30 -9 -30 -4 0 -8 -5 -8 -11 0 -5 5 -7 10 -4 6 4 10 -7 10 -27
-1 -31 -1 -32 -15 -14 -23 31 -16 103 11 116 0 0 1 -13 1 -30z m329 -45 c-2
-7 6 -23 19 -35 17 -16 24 -18 28 -8 2 7 8 -4 12 -25 9 -45 -8 -74 -20 -36
-10 34 -35 59 -57 59 -11 0 -18 7 -18 19 0 32 11 50 26 44 9 -3 13 -11 10 -18z
m189 -82 c-3 -60 -7 -119 -8 -133 -2 -14 -5 -36 -6 -50 -2 -24 -3 -23 -19 10
-21 42 -18 97 4 79 12 -10 14 4 14 88 0 87 4 113 17 113 2 0 1 -48 -2 -107z
m-1232 28 c-3 -20 -12 -44 -21 -53 -8 -10 -12 -28 -10 -43 3 -14 2 -25 -2 -25
-5 0 -6 -8 -3 -18 4 -19 6 -19 91 -13 8 1 12 7 9 14 -2 6 -1 24 4 39 4 17 2
36 -7 53 -37 72 20 135 62 69 16 -24 16 -26 -5 -54 -23 -31 -29 -90 -9 -90 9
0 9 -3 0 -12 -7 -7 -12 -29 -12 -49 0 -21 -5 -41 -11 -44 -7 -5 -9 7 -6 33 l4
40 -45 -19 c-33 -14 -48 -17 -58 -8 -7 6 -17 8 -23 5 -12 -8 -21 18 -21 63 0
27 -7 43 -25 59 -17 15 -25 32 -25 56 0 52 43 75 92 48 23 -13 26 -20 21 -51z
m759 -68 c3 -28 1 -58 -3 -65 -6 -8 -9 -1 -9 22 0 19 -3 53 -6 75 -5 27 -3 37
4 30 5 -5 12 -33 14 -62z m326 -68 c1 -19 6 -44 12 -55 6 -11 9 -24 6 -29 -3
-5 7 -27 22 -50 28 -42 44 -131 23 -131 -21 0 -61 62 -61 96 0 19 -4 34 -8 34
-19 0 -28 77 -15 124 8 25 15 46 17 46 1 0 3 -16 4 -35z m68 -13 c-4 -3 -11
-1 -18 6 -8 8 -8 15 3 28 13 16 14 16 17 -5 2 -13 1 -25 -2 -29z m-476 -78 c0
-38 -3 -45 -17 -42 -22 4 -29 48 -13 78 16 31 30 15 30 -36z m346 29 c3 -16 8
-34 10 -41 2 -8 -3 -12 -14 -10 -12 2 -18 14 -20 41 -4 43 15 51 24 10z m-883
-92 c3 -14 1 -18 -9 -14 -8 3 -14 12 -14 21 0 12 -3 13 -11 5 -9 -9 -6 -21 11
-50 l22 -38 -26 24 c-14 13 -23 27 -21 32 3 4 1 10 -5 14 -7 4 -7 13 0 26 8
15 15 17 29 9 10 -5 21 -18 24 -29z m-196 -30 c-3 -12 -7 -9 -14 9 -6 14 -8
31 -5 39 7 18 24 -26 19 -48z m1257 -3 c-7 -60 -31 -83 -26 -25 4 52 9 67 21
67 5 0 7 -19 5 -42z m-271 -55 c-4 -47 -3 -47 13 -25 24 32 32 28 40 -24 5
-37 3 -47 -11 -58 -16 -12 -17 -14 -1 -38 14 -21 14 -25 1 -25 -8 0 -12 4 -9
8 2 4 0 10 -6 14 -13 8 -52 -19 -42 -30 14 -15 -73 7 -91 23 -27 24 -19 102
12 114 13 4 27 6 32 2 5 -3 9 0 9 7 0 16 40 79 50 79 4 0 6 -21 3 -47z m-988
-12 c10 -25 -4 -25 -24 0 -11 13 -20 27 -21 32 0 11 39 -16 45 -32z m815 -18
c0 -16 -4 -20 -21 -16 -14 4 -17 9 -10 16 6 6 11 20 11 32 0 16 2 17 10 5 5
-8 10 -25 10 -37z m-573 14 c13 5 14 3 4 -15 -7 -12 -18 -22 -26 -22 -11 0
-13 -8 -9 -32 4 -27 3 -30 -6 -16 -6 9 -17 15 -25 12 -18 -7 -19 0 -2 28 17
30 41 55 45 46 2 -4 10 -4 19 -1z m592 -131 c-9 -8 -10 -8 -4 2 4 8 2 25 -5
38 -11 19 -11 26 1 40 13 16 14 13 17 -26 2 -24 -2 -47 -9 -54z m-539 -47 c0
-5 -5 -9 -12 -9 -6 0 -9 3 -5 6 3 4 -3 24 -13 45 -28 55 -24 62 5 10 14 -23
25 -47 25 -52z"/>
<path d="M1400 2447 c0 -16 27 -54 33 -47 10 10 -6 60 -19 60 -8 0 -14 -6 -14
-13z"/>
<path d="M1317 1474 c-17 -17 -5 -30 23 -26 27 4 44 22 21 22 -5 0 -16 2 -23
5 -8 3 -17 2 -21 -1z"/>
<path d="M1854 1345 c-4 -10 -1 -21 7 -26 23 -14 31 -10 27 13 -4 27 -26 35
-34 13z"/>
<path d="M980 663 c0 -5 -4 -14 -9 -22 -7 -11 -13 -10 -35 4 l-26 17 0 -40 c0
-31 5 -43 25 -56 25 -17 34 -59 15 -71 -5 -3 -10 -10 -10 -16 0 -5 9 0 20 11
11 11 27 20 35 20 19 0 19 15 -1 45 -16 24 -15 60 1 98 4 10 3 17 -4 17 -6 0
-11 -3 -11 -7z"/>
<path d="M1096 591 c-4 -27 -12 -42 -26 -46 -19 -6 -21 -14 -24 -72 -1 -10 4
-17 11 -16 8 2 11 -8 8 -30 -17 -121 -17 -153 -1 -166 22 -18 20 -56 -5 -90
-16 -22 -19 -36 -14 -63 6 -32 11 -36 42 -40 26 -3 38 1 50 16 10 14 14 15 10
5 -7 -21 21 -62 35 -53 7 5 9 0 6 -14 -5 -17 -2 -22 13 -22 22 0 22 -1 19 105
-1 52 -6 84 -14 90 -23 18 -29 54 -12 80 14 21 14 36 6 97 -10 71 -22 99 -34
80 -3 -5 -6 -48 -7 -96 -1 -47 -5 -86 -9 -86 -4 0 -7 26 -7 58 0 31 -2 95 -6
142 -3 47 -7 94 -7 104 -1 10 -7 28 -14 38 -12 17 -14 15 -20 -21z"/>
<path d="M1000 75 c0 -70 2 -75 21 -75 18 0 20 4 15 32 -3 18 -8 52 -12 76
-10 67 -24 49 -24 -33z"/>
<path d="M734 83 c4 -81 4 -83 19 -83 19 0 39 63 29 91 -5 13 -7 30 -5 37 3 7
-5 12 -20 12 -24 0 -25 -2 -23 -57z"/>
</g>
</svg>
